<mxfile host="app.diagrams.net" modified="2023-02-05T08:02:49.008Z" agent="5.0 (Windows NT 10.0; Win64; x64) AppleWebKit/537.36 (KHTML, like Gecko) Chrome/97.0.4692.71 Safari/537.36" etag="y2nIkbtQ5KP9Kg4dAwTu" version="20.0.3" type="github">
  <diagram id="cmyu2CPnNLxLO0Smeh7c" name="第 1 页">
    <mxGraphModel dx="149" dy="427" grid="0" gridSize="10" guides="1" tooltips="1" connect="1" arrows="1" fold="1" page="1" pageScale="1" pageWidth="827" pageHeight="1169" background="none" math="0" shadow="0">
      <root>
        <mxCell id="0" />
        <mxCell id="1" parent="0" />
        <mxCell id="oUBLhN4DjLoy9qspo_FG-40" value="" style="rounded=0;whiteSpace=wrap;html=1;strokeWidth=2;dashed=1;strokeColor=#A9C4EB;" vertex="1" parent="1">
          <mxGeometry x="92" y="208" width="617" height="287" as="geometry" />
        </mxCell>
        <mxCell id="oUBLhN4DjLoy9qspo_FG-2" value="" style="verticalAlign=top;verticalLabelPosition=bottom;labelPosition=center;align=center;html=1;outlineConnect=0;fillColor=#1ba1e2;strokeColor=#006EAF;gradientDirection=north;strokeWidth=2;shape=mxgraph.networks.server;dashed=1;dashPattern=1 4;fontColor=#ffffff;" vertex="1" parent="1">
          <mxGeometry x="217" y="295" width="34" height="41" as="geometry" />
        </mxCell>
        <mxCell id="oUBLhN4DjLoy9qspo_FG-3" value="" style="verticalAlign=top;verticalLabelPosition=bottom;labelPosition=center;align=center;html=1;outlineConnect=0;fillColor=#1ba1e2;strokeColor=#006EAF;gradientDirection=north;strokeWidth=2;shape=mxgraph.networks.server;dashed=1;dashPattern=1 4;fontColor=#ffffff;" vertex="1" parent="1">
          <mxGeometry x="251" y="401" width="34" height="41" as="geometry" />
        </mxCell>
        <mxCell id="oUBLhN4DjLoy9qspo_FG-4" value="" style="verticalAlign=top;verticalLabelPosition=bottom;labelPosition=center;align=center;html=1;outlineConnect=0;fillColor=#1ba1e2;strokeColor=#006EAF;gradientDirection=north;strokeWidth=2;shape=mxgraph.networks.server;dashed=1;dashPattern=1 4;fontColor=#ffffff;" vertex="1" parent="1">
          <mxGeometry x="390" y="236" width="34" height="41" as="geometry" />
        </mxCell>
        <mxCell id="oUBLhN4DjLoy9qspo_FG-5" value="" style="verticalAlign=top;verticalLabelPosition=bottom;labelPosition=center;align=center;html=1;outlineConnect=0;fillColor=#1ba1e2;strokeColor=#006EAF;gradientDirection=north;strokeWidth=2;shape=mxgraph.networks.server;dashed=1;dashPattern=1 4;fontColor=#ffffff;" vertex="1" parent="1">
          <mxGeometry x="433" y="406" width="34" height="41" as="geometry" />
        </mxCell>
        <mxCell id="oUBLhN4DjLoy9qspo_FG-6" value="" style="verticalAlign=top;verticalLabelPosition=bottom;labelPosition=center;align=center;html=1;outlineConnect=0;fillColor=#1ba1e2;strokeColor=#006EAF;gradientDirection=north;strokeWidth=2;shape=mxgraph.networks.server;dashed=1;dashPattern=1 4;fontColor=#ffffff;" vertex="1" parent="1">
          <mxGeometry x="530" y="316" width="34" height="41" as="geometry" />
        </mxCell>
        <mxCell id="oUBLhN4DjLoy9qspo_FG-11" value="" style="endArrow=classic;html=1;rounded=0;dashed=1;strokeColor=#97D077;" edge="1" parent="1">
          <mxGeometry relative="1" as="geometry">
            <mxPoint x="131" y="316" as="sourcePoint" />
            <mxPoint x="208" y="316" as="targetPoint" />
            <Array as="points">
              <mxPoint x="158" y="316" />
            </Array>
          </mxGeometry>
        </mxCell>
        <mxCell id="oUBLhN4DjLoy9qspo_FG-12" value="c1" style="edgeLabel;resizable=0;html=1;align=center;verticalAlign=middle;dashed=1;dashPattern=1 4;strokeColor=default;strokeWidth=1;fillColor=#97D077;" connectable="0" vertex="1" parent="oUBLhN4DjLoy9qspo_FG-11">
          <mxGeometry relative="1" as="geometry" />
        </mxCell>
        <mxCell id="oUBLhN4DjLoy9qspo_FG-15" value="" style="endArrow=classic;startArrow=classic;html=1;rounded=0;dashed=1;fillColor=#f5f5f5;gradientColor=#b3b3b3;strokeColor=#666666;" edge="1" parent="1" source="oUBLhN4DjLoy9qspo_FG-2" target="oUBLhN4DjLoy9qspo_FG-4">
          <mxGeometry width="50" height="50" relative="1" as="geometry">
            <mxPoint x="379" y="279" as="sourcePoint" />
            <mxPoint x="429" y="229" as="targetPoint" />
          </mxGeometry>
        </mxCell>
        <mxCell id="oUBLhN4DjLoy9qspo_FG-16" value="" style="endArrow=classic;startArrow=classic;html=1;rounded=0;dashed=1;strokeColor=#666666;entryX=0.5;entryY=1;entryDx=0;entryDy=0;entryPerimeter=0;exitX=0.5;exitY=0;exitDx=0;exitDy=0;exitPerimeter=0;fillColor=#f5f5f5;gradientColor=#b3b3b3;" edge="1" parent="1" source="oUBLhN4DjLoy9qspo_FG-3" target="oUBLhN4DjLoy9qspo_FG-2">
          <mxGeometry width="50" height="50" relative="1" as="geometry">
            <mxPoint x="223" y="386" as="sourcePoint" />
            <mxPoint x="273" y="336" as="targetPoint" />
          </mxGeometry>
        </mxCell>
        <mxCell id="oUBLhN4DjLoy9qspo_FG-17" value="" style="endArrow=classic;startArrow=classic;html=1;rounded=0;dashed=1;strokeColor=#666666;entryX=0;entryY=0.5;entryDx=0;entryDy=0;entryPerimeter=0;exitX=1;exitY=0.5;exitDx=0;exitDy=0;exitPerimeter=0;fillColor=#f5f5f5;gradientColor=#b3b3b3;" edge="1" parent="1" source="oUBLhN4DjLoy9qspo_FG-3" target="oUBLhN4DjLoy9qspo_FG-5">
          <mxGeometry width="50" height="50" relative="1" as="geometry">
            <mxPoint x="278" y="411" as="sourcePoint" />
            <mxPoint x="244" y="346" as="targetPoint" />
          </mxGeometry>
        </mxCell>
        <mxCell id="oUBLhN4DjLoy9qspo_FG-18" value="" style="endArrow=classic;startArrow=classic;html=1;rounded=0;dashed=1;strokeColor=#666666;entryX=1;entryY=0.5;entryDx=0;entryDy=0;entryPerimeter=0;exitX=0.5;exitY=1;exitDx=0;exitDy=0;exitPerimeter=0;fillColor=#f5f5f5;gradientColor=#b3b3b3;" edge="1" parent="1" source="oUBLhN4DjLoy9qspo_FG-6" target="oUBLhN4DjLoy9qspo_FG-5">
          <mxGeometry width="50" height="50" relative="1" as="geometry">
            <mxPoint x="295" y="431.5" as="sourcePoint" />
            <mxPoint x="442" y="431.5" as="targetPoint" />
          </mxGeometry>
        </mxCell>
        <mxCell id="oUBLhN4DjLoy9qspo_FG-19" value="" style="endArrow=classic;startArrow=classic;html=1;rounded=0;dashed=1;strokeColor=#666666;fillColor=#f5f5f5;gradientColor=#b3b3b3;" edge="1" parent="1" source="oUBLhN4DjLoy9qspo_FG-4" target="oUBLhN4DjLoy9qspo_FG-6">
          <mxGeometry width="50" height="50" relative="1" as="geometry">
            <mxPoint x="305" y="441.5" as="sourcePoint" />
            <mxPoint x="452" y="441.5" as="targetPoint" />
          </mxGeometry>
        </mxCell>
        <mxCell id="oUBLhN4DjLoy9qspo_FG-20" value="" style="endArrow=classic;html=1;rounded=0;dashed=1;strokeColor=#FF6666;" edge="1" parent="1">
          <mxGeometry relative="1" as="geometry">
            <mxPoint x="160" y="426" as="sourcePoint" />
            <mxPoint x="237" y="426" as="targetPoint" />
            <Array as="points">
              <mxPoint x="187" y="426" />
            </Array>
          </mxGeometry>
        </mxCell>
        <mxCell id="oUBLhN4DjLoy9qspo_FG-21" value="c2" style="edgeLabel;resizable=0;html=1;align=center;verticalAlign=middle;dashed=1;dashPattern=1 4;strokeColor=default;strokeWidth=1;fillColor=#97D077;" connectable="0" vertex="1" parent="oUBLhN4DjLoy9qspo_FG-20">
          <mxGeometry relative="1" as="geometry" />
        </mxCell>
        <mxCell id="oUBLhN4DjLoy9qspo_FG-22" value="" style="endArrow=classic;html=1;rounded=0;dashed=1;strokeColor=#97D077;" edge="1" parent="1">
          <mxGeometry relative="1" as="geometry">
            <mxPoint x="350" y="446" as="sourcePoint" />
            <mxPoint x="427" y="446" as="targetPoint" />
            <Array as="points">
              <mxPoint x="377" y="446" />
            </Array>
          </mxGeometry>
        </mxCell>
        <mxCell id="oUBLhN4DjLoy9qspo_FG-23" value="c1" style="edgeLabel;resizable=0;html=1;align=center;verticalAlign=middle;dashed=1;dashPattern=1 4;strokeColor=default;strokeWidth=1;fillColor=#97D077;" connectable="0" vertex="1" parent="oUBLhN4DjLoy9qspo_FG-22">
          <mxGeometry relative="1" as="geometry" />
        </mxCell>
        <mxCell id="oUBLhN4DjLoy9qspo_FG-25" value="" style="endArrow=classic;html=1;rounded=0;dashed=1;strokeColor=#FF6666;" edge="1" parent="1">
          <mxGeometry relative="1" as="geometry">
            <mxPoint x="131" y="331" as="sourcePoint" />
            <mxPoint x="208" y="331" as="targetPoint" />
            <Array as="points">
              <mxPoint x="158" y="331" />
            </Array>
          </mxGeometry>
        </mxCell>
        <mxCell id="oUBLhN4DjLoy9qspo_FG-26" value="c2" style="edgeLabel;resizable=0;html=1;align=center;verticalAlign=middle;dashed=1;dashPattern=1 4;strokeColor=default;strokeWidth=1;fillColor=#97D077;" connectable="0" vertex="1" parent="oUBLhN4DjLoy9qspo_FG-25">
          <mxGeometry relative="1" as="geometry" />
        </mxCell>
        <mxCell id="oUBLhN4DjLoy9qspo_FG-27" value="" style="endArrow=classic;html=1;rounded=0;dashed=1;strokeColor=#FF6666;" edge="1" parent="1">
          <mxGeometry relative="1" as="geometry">
            <mxPoint x="642" y="336" as="sourcePoint" />
            <mxPoint x="573" y="336" as="targetPoint" />
            <Array as="points">
              <mxPoint x="622" y="336" />
              <mxPoint x="599" y="336" />
            </Array>
          </mxGeometry>
        </mxCell>
        <mxCell id="oUBLhN4DjLoy9qspo_FG-28" value="c2" style="edgeLabel;resizable=0;html=1;align=center;verticalAlign=middle;dashed=1;dashPattern=1 4;strokeColor=default;strokeWidth=1;fillColor=#97D077;" connectable="0" vertex="1" parent="oUBLhN4DjLoy9qspo_FG-27">
          <mxGeometry relative="1" as="geometry" />
        </mxCell>
        <mxCell id="oUBLhN4DjLoy9qspo_FG-30" value="c1:100Mbps" style="text;html=1;strokeColor=none;fillColor=none;align=center;verticalAlign=middle;whiteSpace=wrap;rounded=0;opacity=10;" vertex="1" parent="1">
          <mxGeometry x="615" y="426" width="60" height="30" as="geometry" />
        </mxCell>
        <mxCell id="oUBLhN4DjLoy9qspo_FG-31" value="c2:&amp;nbsp; 50Mbps" style="text;html=1;strokeColor=none;fillColor=none;align=center;verticalAlign=middle;whiteSpace=wrap;rounded=0;opacity=10;" vertex="1" parent="1">
          <mxGeometry x="607.25" y="447" width="75.5" height="30" as="geometry" />
        </mxCell>
        <mxCell id="oUBLhN4DjLoy9qspo_FG-35" value="" style="rounded=0;whiteSpace=wrap;html=1;strokeColor=#2D7600;strokeWidth=0;fillColor=#97D077;fontColor=#ffffff;gradientColor=none;" vertex="1" parent="1">
          <mxGeometry x="590" y="436.25" width="10" height="9.5" as="geometry" />
        </mxCell>
        <mxCell id="oUBLhN4DjLoy9qspo_FG-36" value="" style="rounded=0;whiteSpace=wrap;html=1;strokeColor=#2D7600;strokeWidth=0;fillColor=#FF6666;fontColor=#ffffff;gradientColor=none;" vertex="1" parent="1">
          <mxGeometry x="590" y="457.25" width="10" height="9.5" as="geometry" />
        </mxCell>
      </root>
    </mxGraphModel>
  </diagram>
</mxfile>
